<svg width="272" height="328" fill="none" xmlns="http://www.w3.org/2000/svg"><path d="M112.762 231.06s-11.199 59.312-20.412 72.859c-9.212 13.547-23.121 14.462-22.85 17.208.541 6.773 5.057 9.794 26.282 2.746 14.451-2.288 17.341-4.668 18.696-7.506 1.355-2.837-2.619-6.865-3.522-15.469-.903-8.603 28.089-55.101 29.173-68.648 1.084-13.546-27.367-1.19-27.367-1.19zm6.232-162.101s-7.044 8.055-16.618 7.048C92.802 75 44.933 52.94 32.108 32.163 19.283 11.386 6.999 1.043 1.399.036-4.2-.97 11.605 19.441 11.605 19.441S.315 16.054.135 17.06c-.09 1.007 2.168 3.387 20.683 15.743 16.167 19.039 35.947 55.56 70.99 61.509 1.175.183 2.258.366 3.342.55 10.477 17.115 10.297 4.301 10.477 1.555 22.76 3.02 27.999 1.282 40.373 7.231 14.541 6.956 53.83 38.077 53.83 38.077l9.935 1.648s-25.38-39.45-75.868-63.889l-14.903-10.526zm59.34 150.111s21.044 24.255 66.745 30.48c15.174.549 15.806 22.516 22.761 21.143 6.954-1.464 2.348-15.011.541-22.242-1.806-7.231-.18-19.587-7.586-17.299-2.89.549-7.226 1.281-11.651 1.647-15.987 1.465-45.521-18.489-50.127-27.917-4.607-9.336-20.683 14.188-20.683 14.188z" fill="#FFDAA1"/><path d="M95.06 229.413s34.321 18.398 67.016 1.647c32.696-16.75 37.302-9.061 60.062-31.12 22.76-22.059 21.767-64.53 21.767-64.53s-76.68 21.876-114.072-58.67c-16.258 3.477-21.857-1.282-21.857-1.282l-5.69.366s5.057 18.398 2.528 25.079c-2.528 6.682-9.754-6.132-9.754-6.132l-7.045-1.373s-.27 35.239 11.742 73.225c4.154 17.757-4.697 62.79-4.697 62.79z" fill="url(#paint0_linear_1_200)"/><path d="M88.828 13.034c25.289-27.46 42.54 10.342 50.488 5.034 7.948-5.31 10.206-15.103 10.206-15.103s21.677 36.155-6.593 59.587C99.847 98.34 63.539 38.113 88.828 13.034z" fill="url(#paint1_linear_1_200)"/><path d="M86.028 311.058c-8.129 6.957-16.619 7.964-16.438 10.069.542 6.773 5.058 9.794 26.283 2.746 14.451-2.288 17.341-4.668 18.696-7.506 1.084-2.38-1.445-5.583-2.891-11.716-.27-1.098-16.166 9.153-25.65 6.407z" fill="url(#paint2_linear_1_200)"/><path d="M257.904 258.062c3.974 6.224 5.871 13.455 9.935 12.631 6.955-1.464 2.349-15.011.542-22.242-1.806-7.231-.18-19.587-7.587-17.299-2.167.458-5.148.915-8.309 1.281-1.084.183 5.329 14.371 5.419 25.629z" fill="url(#paint3_linear_1_200)"/><defs><linearGradient id="paint0_linear_1_200" x1="88.019" y1="156.836" x2="243.931" y2="156.836" gradientUnits="userSpaceOnUse"><stop offset=".006" stop-color="#07AB9E"/><stop offset="1" stop-color="#079F9E"/></linearGradient><linearGradient id="paint1_linear_1_200" x1="80.475" y1="38.307" x2="157.475" y2="38.307" gradientUnits="userSpaceOnUse"><stop stop-color="#E9CE31"/><stop offset="1" stop-color="#EFB52E"/></linearGradient><linearGradient id="paint2_linear_1_200" x1="69.501" y1="316.287" x2="114.825" y2="316.287" gradientUnits="userSpaceOnUse"><stop offset=".006" stop-color="#07AB9E"/><stop offset="1" stop-color="#079F9E"/></linearGradient><linearGradient id="paint3_linear_1_200" x1="252.378" y1="250.787" x2="271.526" y2="250.787" gradientUnits="userSpaceOnUse"><stop offset=".006" stop-color="#07AB9E"/><stop offset="1" stop-color="#079F9E"/></linearGradient></defs></svg>