<svg width="167" height="397" fill="none" xmlns="http://www.w3.org/2000/svg"><path d="M61.324 360.204s-7.795 10.7-6.611 17.3c1.184 6.6 18.353 16.8 21.511 16.5 3.158-.3 12.927 0 12.927 0s.592-14.2-9.177-32.3c-9.473-1.5-18.65-1.5-18.65-1.5z" fill="url(#paint0_linear_1_181)"/><path d="M58.462 361.104l21.117 6.3s63.547-51.3 60.587-147.2c-38.089 14.4-58.614 20.4-58.614 20.4l-23.09 120.5z" fill="#009191"/><path d="M84.513 372.104s-5.23 24.5 2.96 24.4c5.032-.1 46.674.3 48.943-2.2 3.651-3.9-5.822-24.6-26.149-20.8-2.861-3.1-9.571-8-9.571-8l-16.183 6.6z" fill="url(#paint1_linear_1_181)"/><path d="M30.143 255.304l53.482 121.3s11.94-9.4 22.202-7.4c0-27.4-3.75-134.6-3.75-134.6l-71.934 20.7z" fill="url(#paint2_linear_1_181)"/><path d="M63.79 65.104s-109.628 3.3-39.37 200.5c74.4-20.9 125.12-31.4 128.672-54.7-19.834-22.2-14.604-149.7-89.301-145.8z" fill="url(#paint3_linear_1_181)"/><path d="M77.013 165.304l59.008 13 30.392-21.9c-.592-9.4-6.71-30.8-21.314-35.4l-56.837-9.3c-14.604 12.3-17.17 30.8-11.249 53.6z" fill="#EFEFEF"/><path d="M136.021 177.504l29.8-21.4c-4.44-38.1-44.798-61.7-29.8 21.4z" fill="url(#paint4_linear_1_181)"/><path d="M96.255 182.204l26.346-7.3-22.892-4.4s7.992-7.8 4.045-14.5c0 0-13.913 10.8-17.663 15.2-3.75 4.5 10.164 11 10.164 11z" fill="#FFDAA1"/><path d="M27.28 90.904c-16.971-.1-34.93 39.3-2.86 116.1 57.034-8 67.888-19.8 74.4-24.5l-13.518-14.3-36.214 1.2s-4.342-13.5-9.769-43.6c-5.032-28.2-.197-34.9-12.038-34.9z" fill="url(#paint5_linear_1_181)"/><path d="M98.92 95.304l14.998 17.9 10.46 1.5c-7.697-2-14.999-10.7-25.459-19.4z" fill="url(#paint6_linear_1_181)"/><path d="M50.963 23.104c6.414-5.8 19.834 0 19.834 0s21.116 30.3-2.664 50.3c-3.947 1.5-20.426-8.7-21.117-11-2.862 0-13.222-5-8.88-10.3-2.665-12 .394-19.2 12.827-29z" fill="#FFDAA1"/><path d="M61.62 31.804c-4.835 2.8-16.084 7.9-16.084 7.9s-1.776 9.6-.494 13.4c1.185 3.7 4.243 11.7 3.355 10.9 0 0-6.216 3-16.873-13.1-1.776-2.7-5.92-15.5-3.454-21.4 2.467-5.9 11.15-8.1 11.15-8.1-1.677-3.4 5.625-25.9 24.966-20.6 26.74 7.8 2.269 28.2-2.566 31z" fill="url(#paint7_linear_1_181)"/><path d="M46.227 60.504l-1.974 9.4c-.197 1.2.296 2.4 1.382 2.9 3.355 1.7 10.46 5 14.11 3.8 4.835-1.5 4.835-5.5 4.835-5.5l-18.353-10.6z" fill="url(#paint8_linear_1_181)"/><path d="M68.133 73.404c-3.947 2.5-20.624-3.1-21.117-11-2.862 0-13.222-5-8.88-10.3 4.34-5.3 7.104-2.1 7.104-2.1l22.893 23.4z" fill="#FFDAA1"/><path d="M64.68 41.004l9.176 14.4-6.315.6-2.862-15z" fill="url(#paint9_linear_1_181)"/><defs><linearGradient id="paint0_linear_1_181" x1="54.634" y1="377.05" x2="89.225" y2="377.05" gradientUnits="userSpaceOnUse"><stop stop-color="#D69931"/><stop offset="1" stop-color="#EFB52E"/></linearGradient><linearGradient id="paint1_linear_1_181" x1="82.927" y1="381" x2="137.196" y2="381" gradientUnits="userSpaceOnUse"><stop stop-color="#E9CE31"/><stop offset="1" stop-color="#EFB52E"/></linearGradient><linearGradient id="paint2_linear_1_181" x1="30.173" y1="305.612" x2="105.902" y2="305.612" gradientUnits="userSpaceOnUse"><stop offset=".006" stop-color="#07AB9E"/><stop offset="1" stop-color="#079F9E"/></linearGradient><linearGradient id="paint3_linear_1_181" x1=".935" y1="165.301" x2="153.122" y2="165.301" gradientUnits="userSpaceOnUse"><stop stop-color="#3F67FD"/><stop offset="1" stop-color="#4197FF"/></linearGradient><linearGradient id="paint4_linear_1_181" x1="163.441" y1="149.4" x2="133.662" y2="149.4" gradientUnits="userSpaceOnUse"><stop stop-color="#9E9E9E"/><stop offset="1" stop-color="#69696E"/></linearGradient><linearGradient id="paint5_linear_1_181" x1="21.436" y1="111.533" x2="60.965" y2="191.187" gradientUnits="userSpaceOnUse"><stop stop-color="#3F85FD"/><stop offset="1" stop-color="#4197FF"/></linearGradient><linearGradient id="paint6_linear_1_181" x1="98.871" y1="105.016" x2="124.382" y2="105.016" gradientUnits="userSpaceOnUse"><stop stop-color="#3F67FD"/><stop offset="1" stop-color="#4197FF"/></linearGradient><linearGradient id="paint7_linear_1_181" x1="74.837" y1="6.873" x2="29.991" y2="50.875" gradientUnits="userSpaceOnUse"><stop stop-color="#2961BB"/><stop offset="1" stop-color="#0A3E8C"/></linearGradient><linearGradient id="paint8_linear_1_181" x1="44.236" y1="68.66" x2="64.681" y2="68.66" gradientUnits="userSpaceOnUse"><stop stop-color="#FFDAA1"/><stop offset="1" stop-color="#EFBB6F"/></linearGradient><linearGradient id="paint9_linear_1_181" x1="64.702" y1="48.047" x2="72.57" y2="50.497" gradientUnits="userSpaceOnUse"><stop stop-color="#FFDAA1"/><stop offset="1" stop-color="#EFBB6F"/></linearGradient></defs></svg>